<svg id="Layer_1" data-name="Layer 1" xmlns="http://www.w3.org/2000/svg" viewBox="0 0 1080 1080"><defs><style>.cls-1{fill:#ebc170;}</style></defs><path class="cls-1" d="M535.28,364.17c-47.75,0-55.22,70.68-91.91,70.68a27.28,27.28,0,0,1,0-54.56A28.51,28.51,0,0,1,460.25,386V367.63a42.67,42.67,0,0,0-16.88-3.46,43.4,43.4,0,0,0,0,86.8c47.75,0,55.22-70.68,91.91-70.68a27.28,27.28,0,0,1,0,54.56A26.47,26.47,0,0,1,523.71,432v17.3A40.47,40.47,0,0,0,535.28,451a43.4,43.4,0,0,0,0-86.8Z"/><path class="cls-1" d="M152.44,634.15l-2.22-44.55h8.23l9,22.28a10.13,10.13,0,0,0,2.1,3.2,19.85,19.85,0,0,0,2.64,2.53,60.83,60.83,0,0,0,11.08,5.91,76,76,0,0,0,12.5,4.05A47.75,47.75,0,0,0,206,629q12.14,0,19.36-7.48a25.05,25.05,0,0,0,7.23-18.06q0-8.9-4.7-14.35t-14.08-9.5a134.33,134.33,0,0,0-16.25-5.52,127.05,127.05,0,0,1-15.92-5.4A43.58,43.58,0,0,1,161.77,552a45.3,45.3,0,0,1-7-24.86A40.86,40.86,0,0,1,162,503.47a50.81,50.81,0,0,1,19.36-16.65,58.52,58.52,0,0,1,26.79-6.13,143.07,143.07,0,0,1,17,1q8.39,1,15.88,2.65a126.05,126.05,0,0,1,13.5,3.65v41.52h-8.23l-8-20.7a9.38,9.38,0,0,0-2-3.15,22.81,22.81,0,0,0-2.53-2.37,30.41,30.41,0,0,0-8.18-4.1,64.86,64.86,0,0,0-10.18-2.65,52,52,0,0,0-8.65-.9q-11,0-17.24,6.53t-6.28,14.63a25.92,25.92,0,0,0,4.22,14.9q4.22,6.25,15,10.3,7.8,2.81,15.29,5a143.77,143.77,0,0,1,16.35,6,52.33,52.33,0,0,1,13.61,8.55,43.13,43.13,0,0,1,10.5,13.67q4.06,8.16,4.06,19.3A47.94,47.94,0,0,1,256,618.06q-6.27,11.37-19.67,18.63t-34.81,7.25a101.7,101.7,0,0,1-16.72-1.4,166.27,166.27,0,0,1-16.56-3.66Q160,636.63,152.44,634.15Z"/><path class="cls-1" d="M273.75,640.34v-7.09l11.71-4a7.3,7.3,0,0,0,3.32-2.25,6.09,6.09,0,0,0,1.32-4.05V553.48a7.69,7.69,0,0,0-1.37-4.67,10.82,10.82,0,0,0-4.86-3.2l-9.7-3.94v-6l45.15-8.1V622.9a6.23,6.23,0,0,0,1.26,4.11A7.12,7.12,0,0,0,324,629.2l10.87,4v7.09Zm29.64-134.11a17.1,17.1,0,0,1-9-2.48,18.93,18.93,0,0,1-6.59-6.63,17.73,17.73,0,0,1-2.48-9.23,17.83,17.83,0,0,1,18-18.11,18.19,18.19,0,0,1,13.13,5.12,16.85,16.85,0,0,1,5.33,12.65,18.09,18.09,0,0,1-2.53,9.51,19.08,19.08,0,0,1-6.7,6.69A17.76,17.76,0,0,1,303.39,506.23Z"/><path class="cls-1" d="M409.09,640.34v-6.86l9.39-4.05a7.16,7.16,0,0,0,3.37-2.31,6.41,6.41,0,0,0,1.16-4V576a99,99,0,0,0-1.21-16.88c-.81-4.57-2.41-8-4.8-10.35s-6.05-3.49-11-3.49A38.67,38.67,0,0,0,396,546.68q-5.22,1.41-8.7,7.82V623a5.4,5.4,0,0,0,1.32,3.93,12.65,12.65,0,0,0,3.32,2.37l8.34,3.93v7.09H342.84v-6.86l10.76-4.05a6.44,6.44,0,0,0,3.32-2.31,6.65,6.65,0,0,0,1.22-4.1V553.26a7.41,7.41,0,0,0-1.43-4.73,10.62,10.62,0,0,0-4.59-3l-9.28-3.83v-6l43.67-8.78v18.45h.21q8.44-12.48,16.72-15.92A42.06,42.06,0,0,1,419.53,526a36.83,36.83,0,0,1,12.92,2.25,27.34,27.34,0,0,1,10.66,7.2q4.59,4.95,6.8,13.39l2,.79v73.47a5.21,5.21,0,0,0,1.32,3.88,13.14,13.14,0,0,0,3.32,2.31l8.12,3.93v7.09Zm64.56,0v-6.86l9.49-4.05a7.25,7.25,0,0,0,3.32-2.36,6.65,6.65,0,0,0,1.22-4.17V576a98.9,98.9,0,0,0-1.22-16.88c-.8-4.57-2.39-8-4.74-10.35s-6-3.49-10.92-3.49A39.21,39.21,0,0,0,460.2,547q-6,1.68-9.23,9.79l-3-6.87q7.17-11.25,13.45-16.25t12-6.31a49.56,49.56,0,0,1,11-1.29,34,34,0,0,1,16.45,4,27.84,27.84,0,0,1,11.66,12.66q4.28,8.67,4.27,22.5v58a5.34,5.34,0,0,0,1.27,3.82,11.32,11.32,0,0,0,3.37,2.37l9.5,3.93v7.09Z"/><path class="cls-1" d="M592.32,642.93q-15.62,0-27.48-6.64a46,46,0,0,1-18.56-19.52q-6.71-12.88-6.7-31.56a66.27,66.27,0,0,1,6.49-29.2,54.63,54.63,0,0,1,18.51-21.71q12-8.26,28.8-8.27,14.34,0,24.31,6.36a42.6,42.6,0,0,1,15.19,16.31,44.59,44.59,0,0,1,5.23,21c0,.89,0,2.19-.11,3.88s-.16,3.34-.26,4.95a34.3,34.3,0,0,1-.37,3.54h-69.1l.42-10.57h39.56a92.48,92.48,0,0,0-1.42-17.16q-1.43-7.49-5.12-11.87t-10.44-4.39q-6.64,0-10.76,3.71a25.32,25.32,0,0,0-6.49,9.73A54.64,54.64,0,0,0,570.75,565a124.25,124.25,0,0,0-.9,15,81.92,81.92,0,0,0,2.9,22.45A31.37,31.37,0,0,0,583,618.57q7.38,6,21,6a44.79,44.79,0,0,0,13.35-1.8,55,55,0,0,0,10.12-4.22q4.38-2.42,7.44-4.22h2.95v9.45a98.66,98.66,0,0,1-19.35,12.83A55.46,55.46,0,0,1,592.32,642.93Z"/><path class="cls-1" d="M726.4,529.86,723.55,543H689.79v69.31a10,10,0,0,0,3.54,7.76,24,24,0,0,0,8.17,4.78,24.61,24.61,0,0,0,7.92,1.63,38.43,38.43,0,0,0,7-.67,44.83,44.83,0,0,0,6-1.46h2.74v8.1c-1.47.9-3.83,2.15-7.06,3.77a70.1,70.1,0,0,1-11.4,4.33,49.55,49.55,0,0,1-13.92,1.91,45.27,45.27,0,0,1-16.35-2.76A27,27,0,0,1,665,631.79a19.13,19.13,0,0,1-4.27-12.6V543H643.91v-8.55a56.57,56.57,0,0,0,9.81-3,14.42,14.42,0,0,0,6.54-5.4q2.41-3.66,2.74-10.3l.84-14.29,25.95-4.27v32.63Z"/><path class="cls-1" d="M729.56,640.34v-7.09l11-3.93a7.64,7.64,0,0,0,3.38-2.25,6,6,0,0,0,1.37-4.05v-69A9.84,9.84,0,0,0,744,548.7a9,9,0,0,0-4.9-3.32l-10.34-3.82v-6.08l44.41-8.55V551.8h.21a135.76,135.76,0,0,1,8-12.27,40.23,40.23,0,0,1,9.92-9.67A23.21,23.21,0,0,1,804.57,526a35.46,35.46,0,0,1,9.65,1.07,54,54,0,0,1,7.33,2.76v34.2H810.79l-4.33-8.44c-.63-1.27-2.05-2.44-4.27-3.49a15.26,15.26,0,0,0-6.59-1.57,35.19,35.19,0,0,0-7.54.79,20.21,20.21,0,0,0-7,3,28.13,28.13,0,0,0-6.7,6.69v62a6.06,6.06,0,0,0,4.65,6.3l13.29,3.93v7.09Z"/><path class="cls-1" d="M854.46,642.59a26.16,26.16,0,0,1-15-4.33,29,29,0,0,1-9.92-11.36A33.19,33.19,0,0,1,826.08,612q0-10.57,4.75-17.89a37.69,37.69,0,0,1,12.29-11.87,58.49,58.49,0,0,1,15.93-6.69,63.77,63.77,0,0,1,15.77-2.14c.84,0,2.18.07,4,.22s3.65.32,5.48.51a24.83,24.83,0,0,0,4.12.17l.1-15.3q.11-11-2.79-14.8t-10.6-3.77a23.86,23.86,0,0,0-9,2,54.18,54.18,0,0,0-9.45,5.06q-4.63,3.1-8.8,6.19t-7.23,5.23h-3.9l-3.8-23.06a100.17,100.17,0,0,1,11.45-4.67,103.82,103.82,0,0,1,14-3.66A86.38,86.38,0,0,1,874.61,526a64.73,64.73,0,0,1,20.2,3.26,35,35,0,0,1,16.46,11.14q6.48,7.88,6.27,21.83l-.42,56.48a7.14,7.14,0,0,0,2.22,5.46c1.47,1.38,3.62,2.08,6.43,2.08a25.86,25.86,0,0,0,3.8-.45c1.76-.3,3.41-.64,5-1h2.32v8.32a36,36,0,0,1-6.38,3.94,59.86,59.86,0,0,1-9.66,3.88,34.11,34.11,0,0,1-10.12,1.63q-9.81,0-16-4.05t-6.17-14.62h-.31q-5.18,8.33-11.29,12.37a33.23,33.23,0,0,1-12,5.18A56.31,56.31,0,0,1,854.46,642.59Zm16.46-17.66a24.56,24.56,0,0,0,9.33-2,17.14,17.14,0,0,0,8.07-7.37l.11-32a56.52,56.52,0,0,0-17,2.3,22.66,22.66,0,0,0-11.23,7.37q-4,5.07-4,13.39,0,7,2.27,11a13.22,13.22,0,0,0,5.64,5.63A15.73,15.73,0,0,0,870.92,624.93Z"/></svg>